<svg xmlns="http://www.w3.org/2000/svg" width="14.008" height="46.034"><path d="M13.801 44.343 1.259 23.051 13.837 1.697c.228-.388.228-1.017 0-1.406-.197-.333-.498-.38-.725-.14a.785.785 0 0 0-.103.14L.172 22.085a1.09 1.09 0 0 0-.083.177c-.06.16-.089.343-.089.526a1.636 1.636 0 0 0 .033.328 1.63 1.63 0 0 0-.015.219c0 .182.03.364.089.524a1.083 1.083 0 0 0 .082.176l12.787 21.71a.784.784 0 0 0 .103.139c.226.24.526.193.722-.14a1.22 1.22 0 0 0 .137-.367c.073-.349.028-.754-.137-1.034Z" fill="rgba(236, 100, 75, 1)" fill-rule="evenodd" data-name="Rounded Rectangle 2 copy 7"/></svg>