<svg xmlns="http://www.w3.org/2000/svg" width="14.008" height="46.034" viewBox="206 0 14.008 46.034"><path d="M206.207 44.343 218.75 23.05 206.172 1.697a1.085 1.085 0 0 1-.083-.177c-.142-.383-.114-.895.083-1.229a.82.82 0 0 1 .08-.114c.228-.27.544-.231.748.114l12.837 21.794a1.087 1.087 0 0 1 .079.166c.061.163.092.35.092.537a1.635 1.635 0 0 1-.032.328 1.632 1.632 0 0 1 .014.218c0 .183-.03.365-.088.525a1.088 1.088 0 0 1-.083.176l-12.787 21.709a.786.786 0 0 1-.103.14c-.225.24-.526.193-.722-.14-.195-.332-.223-.843-.082-1.225a1.084 1.084 0 0 1 .082-.176Z" fill="rgba(236, 100, 75, 1)" fill-rule="evenodd" data-name="Rounded Rectangle 2 copy 2"/></svg>